<?xml version="1.0" standalone="no"?>
<!DOCTYPE svg PUBLIC "-//W3C//DTD SVG 20010904//EN"
 "http://www.w3.org/TR/2001/REC-SVG-20010904/DTD/svg10.dtd">
<svg version="1.0" xmlns="http://www.w3.org/2000/svg"
 width="500.000000pt" height="500.000000pt" viewBox="0 0 500.000000 500.000000"
 preserveAspectRatio="xMidYMid meet">

<g transform="translate(0.000000,500.000000) scale(0.100000,-0.100000)"
fill="#000000" stroke="none">
<path d="M143 4299 c-26 -8 -34 -17 -43 -48 -7 -27 -9 -597 -8 -1791 3 -1721
3 -1752 22 -1766 30 -21 3210 -21 3261 0 43 18 57 45 53 103 -4 57 -34 83
-110 94 -29 4 -201 8 -382 8 l-328 1 28 33 c16 19 459 668 984 1444 l955 1411
5 -1486 c5 -1493 6 -1508 39 -1571 40 -74 177 -64 218 17 17 35 18 113 21
1732 l2 1695 -22 44 c-13 25 -36 54 -51 65 -56 41 -161 15 -223 -56 -16 -19
-486 -721 -1044 -1561 -558 -840 -1018 -1526 -1022 -1524 -3 1 -200 293 -437
649 l-430 647 807 3 c913 3 870 0 893 77 18 61 3 101 -46 126 -39 19 -63 20
-925 23 l-885 3 -465 701 c-256 386 -466 705 -468 709 -2 5 628 10 1400 11
1305 3 1405 4 1434 20 39 22 55 63 44 114 -10 43 -28 60 -80 74 -46 13 -3152
12 -3197 -1z m717 -1153 c168 -247 309 -456 313 -463 7 -11 -60 -13 -373 -13
l-380 0 0 562 0 561 68 -99 c37 -54 205 -301 372 -548z m986 -1456 c280 -413
515 -759 523 -770 13 -20 9 -20 -968 -20 l-981 0 0 770 0 770 459 0 459 0 508
-750z"/>
</g>
</svg>
